<svg xmlns="http://www.w3.org/2000/svg" viewBox="0 0 1600 230" width="1600" height="230" role="img" aria-label="The one key, six stations: the controller's register, the synoptic pixel, the trend, the batch, the work order and the signed sheet, joined by arrows, one amber thread over all six and the same key on every card">
<!-- pilot - 2026-09-19 - drawn by scripts/draw-onekey-strip.py (D75); the dress of SC-D2 -->
<defs><marker id="ar" markerWidth="10" markerHeight="10" refX="8" refY="4" orient="auto" markerUnits="userSpaceOnUse"><path d="M0,0 L9,4 L0,8 Z" fill="#46C3EE"/></marker></defs>
<style>.rt{font-family:Saira,Inter,Arial,sans-serif;font-size:20px;font-weight:600;letter-spacing:1px;fill:#FFFFFF}.rl{font-family:Saira,Inter,Arial,sans-serif;font-size:16px;font-weight:400;letter-spacing:.4px;fill:#9DB0C4}.rc{font-family:"JetBrains Mono",Consolas,monospace;font-size:15px;letter-spacing:.6px;fill:#EE9F46}.say{font-family:Saira,Inter,Arial,sans-serif;font-size:18px;font-weight:600;fill:#1E7FA6}</style>
<line x1="135.0" y1="16" x2="1465.0" y2="16" stroke="#EE9F46" stroke-width="2.6"/>
<line x1="135.0" y1="16" x2="135.0" y2="30" stroke="#EE9F46" stroke-width="2"/>
<circle cx="135.0" cy="16" r="5.5" fill="#EE9F46"/>
<line x1="401.0" y1="16" x2="401.0" y2="30" stroke="#EE9F46" stroke-width="2"/>
<circle cx="401.0" cy="16" r="5.5" fill="#EE9F46"/>
<line x1="667.0" y1="16" x2="667.0" y2="30" stroke="#EE9F46" stroke-width="2"/>
<circle cx="667.0" cy="16" r="5.5" fill="#EE9F46"/>
<line x1="933.0" y1="16" x2="933.0" y2="30" stroke="#EE9F46" stroke-width="2"/>
<circle cx="933.0" cy="16" r="5.5" fill="#EE9F46"/>
<line x1="1199.0" y1="16" x2="1199.0" y2="30" stroke="#EE9F46" stroke-width="2"/>
<circle cx="1199.0" cy="16" r="5.5" fill="#EE9F46"/>
<line x1="1465.0" y1="16" x2="1465.0" y2="30" stroke="#EE9F46" stroke-width="2"/>
<circle cx="1465.0" cy="16" r="5.5" fill="#EE9F46"/>
<rect x="22" y="30" width="226" height="150" rx="8" fill="#14202F"/>
<text class="rt" x="135.0" y="66" text-anchor="middle">The register</text>
<text class="rl" x="135.0" y="94" text-anchor="middle">the controller's address,</text>
<text class="rl" x="135.0" y="115" text-anchor="middle">read by the edge</text>
<rect x="68.8" y="138" width="132.4" height="26" rx="5" fill="rgba(238,159,70,.14)" stroke="#EE9F46" stroke-width="1.4"/>
<text class="rc" x="135.0" y="156" text-anchor="middle">BLD-AIT-2201</text>
<line x1="253" y1="105.0" x2="282" y2="105.0" stroke="#46C3EE" stroke-width="2.4" marker-end="url(#ar)"/>
<rect x="288" y="30" width="226" height="150" rx="8" fill="#14202F"/>
<text class="rt" x="401.0" y="66" text-anchor="middle">The pixel</text>
<text class="rl" x="401.0" y="94" text-anchor="middle">the tile on the synoptic,</text>
<text class="rl" x="401.0" y="115" text-anchor="middle">the faceplate behind it</text>
<rect x="334.8" y="138" width="132.4" height="26" rx="5" fill="rgba(238,159,70,.14)" stroke="#EE9F46" stroke-width="1.4"/>
<text class="rc" x="401.0" y="156" text-anchor="middle">BLD-AIT-2201</text>
<line x1="519" y1="105.0" x2="548" y2="105.0" stroke="#46C3EE" stroke-width="2.4" marker-end="url(#ar)"/>
<rect x="554" y="30" width="226" height="150" rx="8" fill="#14202F"/>
<text class="rt" x="667.0" y="66" text-anchor="middle">The trend</text>
<text class="rl" x="667.0" y="94" text-anchor="middle">the pen, the two cursors,</text>
<text class="rl" x="667.0" y="115" text-anchor="middle">the history behind them</text>
<rect x="600.8" y="138" width="132.4" height="26" rx="5" fill="rgba(238,159,70,.14)" stroke="#EE9F46" stroke-width="1.4"/>
<text class="rc" x="667.0" y="156" text-anchor="middle">BLD-AIT-2201</text>
<line x1="785" y1="105.0" x2="814" y2="105.0" stroke="#46C3EE" stroke-width="2.4" marker-end="url(#ar)"/>
<rect x="820" y="30" width="226" height="150" rx="8" fill="#14202F"/>
<text class="rt" x="933.0" y="66" text-anchor="middle">The batch</text>
<text class="rl" x="933.0" y="94" text-anchor="middle">the recipe's counter,</text>
<text class="rl" x="933.0" y="115" text-anchor="middle">the batch record's row</text>
<rect x="866.8" y="138" width="132.4" height="26" rx="5" fill="rgba(238,159,70,.14)" stroke="#EE9F46" stroke-width="1.4"/>
<text class="rc" x="933.0" y="156" text-anchor="middle">BLD-AIT-2201</text>
<line x1="1051" y1="105.0" x2="1080" y2="105.0" stroke="#46C3EE" stroke-width="2.4" marker-end="url(#ar)"/>
<rect x="1086" y="30" width="226" height="150" rx="8" fill="#14202F"/>
<text class="rt" x="1199.0" y="66" text-anchor="middle">The work order</text>
<text class="rl" x="1199.0" y="94" text-anchor="middle">the running hours,</text>
<text class="rl" x="1199.0" y="115" text-anchor="middle">the plan that comes due</text>
<rect x="1132.8" y="138" width="132.4" height="26" rx="5" fill="rgba(238,159,70,.14)" stroke="#EE9F46" stroke-width="1.4"/>
<text class="rc" x="1199.0" y="156" text-anchor="middle">BLD-AIT-2201</text>
<line x1="1317" y1="105.0" x2="1346" y2="105.0" stroke="#46C3EE" stroke-width="2.4" marker-end="url(#ar)"/>
<rect x="1352" y="30" width="226" height="150" rx="8" fill="#14202F"/>
<text class="rt" x="1465.0" y="66" text-anchor="middle">The signed sheet</text>
<text class="rl" x="1465.0" y="94" text-anchor="middle">the report block, computed</text>
<text class="rl" x="1465.0" y="115" text-anchor="middle">from the same rows</text>
<rect x="1398.8" y="138" width="132.4" height="26" rx="5" fill="rgba(238,159,70,.14)" stroke="#EE9F46" stroke-width="1.4"/>
<text class="rc" x="1465.0" y="156" text-anchor="middle">BLD-AIT-2201</text>
<line x1="22" y1="201" x2="1578" y2="201" stroke="#EE9F46" stroke-width="2.6"/>
<text class="say" x="800" y="223" text-anchor="middle">One key, six stations: the same identity from the controller's register to the signed sheet — nothing mapped a second time.</text>
</svg>
